# Blender v3.2.1 OBJ File: 'plataforma.blend'
# www.blender.org
mtllib obstaculo.mtl
o Obstaculo_Torus.012
v 1.479403 0.000001 -0.494941
v 1.425068 0.176337 -0.476763
v 1.282818 0.285318 -0.429173
v 1.106987 0.285318 -0.370347
v 0.964737 0.176337 -0.322757
v 0.910402 0.000001 -0.304579
v 0.964737 -0.176335 -0.322757
v 1.106987 -0.285316 -0.370347
v 1.282818 -0.285316 -0.429173
v 1.425068 -0.176335 -0.476763
v 0.905943 0.000001 -1.269987
v 0.872670 0.176337 -1.223343
v 0.785560 0.285318 -1.101229
v 0.677886 0.285318 -0.950288
v 0.590777 0.176337 -0.828174
v 0.557504 0.000001 -0.781530
v 0.590777 -0.176335 -0.828174
v 0.677886 -0.285316 -0.950288
v 0.785560 -0.285316 -1.101229
v 0.872670 -0.176335 -1.223343
v -0.013556 0.000001 -1.559941
v -0.013058 0.176337 -1.502648
v -0.011755 0.285318 -1.352654
v -0.010143 0.285318 -1.167251
v -0.008840 0.176337 -1.017256
v -0.008342 0.000001 -0.959964
v -0.008840 -0.176335 -1.017256
v -0.010143 -0.285316 -1.167251
v -0.011755 -0.285316 -1.352654
v -0.013058 -0.176335 -1.502648
v -0.927878 0.000001 -1.254051
v -0.893799 0.176337 -1.207992
v -0.804580 0.285318 -1.087411
v -0.694299 0.285318 -0.938363
v -0.605080 0.176337 -0.817782
v -0.571002 0.000001 -0.771723
v -0.605080 -0.176335 -0.817782
v -0.694299 -0.285316 -0.938363
v -0.804580 -0.285316 -1.087411
v -0.893799 -0.176335 -1.207992
v -1.487781 0.000001 -0.469155
v -1.433139 0.176337 -0.451924
v -1.290083 0.285318 -0.406813
v -1.113256 0.285318 -0.351053
v -0.970200 0.176337 -0.305942
v -0.915558 0.000001 -0.288711
v -0.970200 -0.176335 -0.305942
v -1.113256 -0.285316 -0.351053
v -1.290083 -0.285316 -0.406813
v -1.433139 -0.176335 -0.451924
v -1.479403 0.000001 0.494941
v -1.425068 0.176337 0.476763
v -1.282818 0.285318 0.429172
v -1.106987 0.285318 0.370347
v -0.964737 0.176337 0.322757
v -0.910402 0.000001 0.304579
v -0.964737 -0.176335 0.322757
v -1.106987 -0.285316 0.370347
v -1.282818 -0.285316 0.429172
v -1.425068 -0.176335 0.476763
v -0.905944 0.000001 1.269987
v -0.872671 0.176337 1.223343
v -0.785561 0.285318 1.101229
v -0.677887 0.285318 0.950288
v -0.590777 0.176337 0.828174
v -0.557504 0.000001 0.781530
v -0.590777 -0.176335 0.828174
v -0.677887 -0.285316 0.950288
v -0.785561 -0.285316 1.101229
v -0.872671 -0.176335 1.223343
v 0.013556 0.000001 1.559941
v 0.013058 0.176337 1.502648
v 0.011755 0.285318 1.352654
v 0.010144 0.285318 1.167251
v 0.008840 0.176337 1.017256
v 0.008342 0.000001 0.959964
v 0.008840 -0.176335 1.017256
v 0.010144 -0.285316 1.167251
v 0.011755 -0.285316 1.352654
v 0.013058 -0.176335 1.502648
v 0.927878 0.000001 1.254050
v 0.893799 0.176337 1.207992
v 0.804580 0.285318 1.087411
v 0.694299 0.285318 0.938363
v 0.605080 0.176337 0.817782
v 0.571002 0.000001 0.771723
v 0.605080 -0.176335 0.817782
v 0.694299 -0.285316 0.938363
v 0.804580 -0.285316 1.087411
v 0.893799 -0.176335 1.207992
v 1.487781 0.000001 0.469156
v 1.433138 0.176337 0.451925
v 1.290083 0.285318 0.406814
v 1.113256 0.285318 0.351054
v 0.970200 0.176337 0.305943
v 0.915558 0.000001 0.288712
v 0.970200 -0.176335 0.305943
v 1.113256 -0.285316 0.351054
v 1.290083 -0.285316 0.406814
v 1.433138 -0.176335 0.451925
v 1.250643 0.000002 -0.240000
v 2.205156 0.000001 -0.554402
v 1.250643 -0.141067 -0.194164
v 2.205158 -0.325867 -0.448520
v 1.250643 -0.228252 -0.074164
v 2.205156 -0.527264 -0.171319
v 1.250643 -0.228252 0.074164
v 2.205156 -0.527264 0.171319
v 1.250643 -0.141067 0.194164
v 2.205155 -0.325867 0.448519
v 1.250643 0.000002 0.240000
v 2.205157 0.000001 0.554400
v 1.250643 0.141070 0.194164
v 2.205155 0.325870 0.448519
v 1.250643 0.228255 0.074164
v 2.205156 0.527267 0.171319
v 1.250643 0.228255 -0.074164
v 2.205156 0.527267 -0.171319
v 1.250643 0.141070 -0.194164
v 2.205158 0.325870 -0.448520
v 2.150643 0.000002 -0.240000
v 2.150643 -0.141067 -0.194164
v 2.150643 -0.228252 -0.074164
v 2.150643 -0.228252 0.074164
v 2.150643 -0.141067 0.194164
v 2.150643 0.000002 0.240000
v 2.150643 0.141070 0.194164
v 2.150643 0.228255 0.074164
v 2.150643 0.228255 -0.074164
v 2.150643 0.141070 -0.194164
v 14.055161 -0.040334 -0.055518
v 13.725165 -0.325867 -0.448519
v 13.958509 -0.242236 -0.333411
v 13.725163 0.000001 -0.554399
v 14.055169 0.000001 -0.068624
v 13.958510 0.000001 -0.412119
v 14.055164 -0.065264 -0.021205
v 13.725165 -0.527264 -0.171319
v 13.958508 -0.391947 -0.127351
v 14.055164 -0.065264 0.021207
v 13.725164 -0.527264 0.171320
v 13.958511 -0.391947 0.127353
v 14.055167 -0.040335 0.055520
v 13.725163 -0.325867 0.448519
v 13.958508 -0.242237 0.333414
v 14.055160 0.000002 0.068625
v 13.725164 0.000001 0.554401
v 13.958507 0.000002 0.412121
v 14.055167 0.040339 0.055520
v 13.725163 0.325870 0.448519
v 13.958512 0.242239 0.333413
v 14.055164 0.065268 0.021207
v 13.725164 0.527267 0.171320
v 13.958511 0.391951 0.127353
v 14.055164 0.065268 -0.021205
v 13.725165 0.527267 -0.171319
v 13.958508 0.391951 -0.127351
v 14.055161 0.040338 -0.055518
v 13.725165 0.325870 -0.448519
v 13.958509 0.242240 -0.333411
vt 0.600000 0.700000
vt 0.700000 0.700000
vt 0.700000 0.800000
vt 0.600000 0.800000
vt 0.600000 0.900000
vt 0.700000 0.900000
vt 0.700000 1.000000
vt 0.600000 1.000000
vt 0.600000 -0.000000
vt 0.700000 -0.000000
vt 0.700000 0.100000
vt 0.600000 0.100000
vt 0.700000 0.200000
vt 0.600000 0.200000
vt 0.700000 0.300000
vt 0.600000 0.300000
vt 0.700000 0.400000
vt 0.600000 0.400000
vt 0.600000 0.500000
vt 0.700000 0.500000
vt 0.700000 0.600000
vt 0.600000 0.600000
vt 0.800000 0.700000
vt 0.800000 0.800000
vt 0.800000 0.900000
vt 0.800000 1.000000
vt 0.800000 -0.000000
vt 0.800000 0.100000
vt 0.800000 0.200000
vt 0.800000 0.300000
vt 0.800000 0.400000
vt 0.800000 0.500000
vt 0.800000 0.600000
vt 0.900000 0.700000
vt 0.900000 0.800000
vt 0.900000 0.900000
vt 0.900000 1.000000
vt 0.900000 -0.000000
vt 0.900000 0.100000
vt 0.900000 0.200000
vt 0.900000 0.300000
vt 0.900000 0.400000
vt 0.900000 0.500000
vt 0.900000 0.600000
vt 1.000000 0.700000
vt 1.000000 0.800000
vt 1.000000 0.900000
vt 1.000000 1.000000
vt 1.000000 -0.000000
vt 1.000000 0.100000
vt 1.000000 0.200000
vt 1.000000 0.300000
vt 1.000000 0.400000
vt 1.000000 0.500000
vt 1.000000 0.600000
vt -0.000000 0.700000
vt 0.100000 0.700000
vt 0.100000 0.800000
vt -0.000000 0.800000
vt -0.000000 0.900000
vt 0.100000 0.900000
vt 0.100000 1.000000
vt -0.000000 1.000000
vt -0.000000 -0.000000
vt 0.100000 -0.000000
vt 0.100000 0.100000
vt -0.000000 0.100000
vt 0.100000 0.200000
vt -0.000000 0.200000
vt 0.100000 0.300000
vt -0.000000 0.300000
vt 0.100000 0.400000
vt -0.000000 0.400000
vt -0.000000 0.500000
vt 0.100000 0.500000
vt 0.100000 0.600000
vt -0.000000 0.600000
vt 0.200000 0.700000
vt 0.200000 0.800000
vt 0.200000 0.900000
vt 0.200000 1.000000
vt 0.200000 -0.000000
vt 0.200000 0.100000
vt 0.200000 0.200000
vt 0.200000 0.300000
vt 0.200000 0.400000
vt 0.200000 0.500000
vt 0.200000 0.600000
vt 0.300000 0.700000
vt 0.300000 0.800000
vt 0.300000 0.900000
vt 0.300000 1.000000
vt 0.300000 -0.000000
vt 0.300000 0.100000
vt 0.300000 0.200000
vt 0.300000 0.300000
vt 0.300000 0.400000
vt 0.300000 0.500000
vt 0.300000 0.600000
vt 0.400000 0.700000
vt 0.400000 0.800000
vt 0.400000 0.900000
vt 0.400000 1.000000
vt 0.400000 -0.000000
vt 0.400000 0.100000
vt 0.400000 0.200000
vt 0.400000 0.300000
vt 0.400000 0.400000
vt 0.400000 0.500000
vt 0.400000 0.600000
vt 0.500000 0.700000
vt 0.500000 0.800000
vt 0.500000 0.900000
vt 0.500000 1.000000
vt 0.500000 -0.000000
vt 0.500000 0.100000
vt 0.500000 0.200000
vt 0.500000 0.300000
vt 0.500000 0.400000
vt 0.500000 0.500000
vt 0.500000 0.600000
vt 1.000000 0.750000
vt 1.000000 1.000000
vt 0.900000 1.000000
vt 0.900000 0.750000
vt 0.800000 0.750000
vt 0.800000 1.000000
vt 0.700000 1.000000
vt 0.700000 0.750000
vt 0.600000 0.750000
vt 0.600000 1.000000
vt 0.500000 1.000000
vt 0.500000 0.750000
vt 0.400000 0.750000
vt 0.400000 1.000000
vt 0.300000 1.000000
vt 0.300000 0.750000
vt 0.100000 1.000000
vt 0.200000 1.000000
vt 0.200000 1.000000
vt 0.100000 1.000000
vt 0.200000 0.750000
vt 0.100000 0.750000
vt 0.750000 0.490000
vt 0.891068 0.444164
vt 0.978254 0.324164
vt 0.978254 0.175836
vt 0.891068 0.055836
vt 0.750000 0.010000
vt 0.608932 0.055836
vt 0.521746 0.175836
vt 0.521746 0.324164
vt 0.608932 0.444164
vt 0.400000 1.000000
vt 0.300000 1.000000
vt 0.600000 1.000000
vt 0.500000 1.000000
vt 0.267461 0.274034
vt 0.250000 0.279708
vt 0.232538 0.274034
vt 0.221746 0.259180
vt 0.221746 0.240820
vt 0.232538 0.225966
vt 0.250000 0.220292
vt 0.267462 0.225966
vt 0.278254 0.240820
vt 0.278254 0.259180
vt 0.800000 1.000000
vt 0.700000 1.000000
vt 0.900000 1.000000
vt 1.000000 1.000000
vt 0.987168 1.000000
vt 0.912832 1.000000
vt 0.372966 0.450046
vt 0.268102 0.484118
vt 0.787168 1.000000
vt 0.712832 1.000000
vt 0.478254 0.194870
vt 0.478254 0.305131
vt 0.587168 1.000000
vt 0.512832 1.000000
vt 0.268102 0.015882
vt 0.372967 0.049954
vt 0.387168 1.000000
vt 0.312832 1.000000
vt 0.032934 0.160438
vt 0.097744 0.071234
vt 0.187168 1.000000
vt 0.112832 1.000000
vt 0.097744 0.428766
vt 0.032934 0.339563
vt -0.000000 1.000000
vt -0.000000 0.750000
vt -0.000000 1.000000
vt 0.887168 1.000000
vt 0.812832 1.000000
vt 0.467066 0.339563
vt 0.402256 0.428766
vt 0.687168 1.000000
vt 0.612832 1.000000
vt 0.402256 0.071234
vt 0.467066 0.160438
vt 0.487168 1.000000
vt 0.412832 1.000000
vt 0.127033 0.049954
vt 0.231898 0.015882
vt 0.287168 1.000000
vt 0.212832 1.000000
vt 0.021746 0.305131
vt 0.021746 0.194870
vt 0.087168 1.000000
vt 0.012832 1.000000
vt 0.231899 0.484118
vt 0.127034 0.450046
vt 0.100000 0.500000
vt -0.000000 0.500000
vt 0.200000 0.500000
vt 0.300000 0.500000
vt 0.400000 0.500000
vt 0.500000 0.500000
vt 0.600000 0.500000
vt 0.700000 0.500000
vt 0.800000 0.500000
vt 0.900000 0.500000
vt 1.000000 0.500000
vn 0.4880 0.7947 -0.3611
vn -0.4880 0.7947 0.3611
vn -0.7680 0.2952 0.5683
vn -0.7680 -0.2952 0.5683
vn -0.4880 -0.7947 0.3611
vn 0.0000 -1.0000 0.0000
vn 0.7680 -0.2952 -0.5683
vn 0.1826 0.7947 -0.5790
vn -0.1826 0.7947 0.5790
vn -0.2873 0.2952 0.9112
vn -0.2873 -0.2952 0.9112
vn -0.1826 -0.7947 0.5790
vn 0.2873 -0.2952 -0.9112
vn -0.1926 0.7947 -0.5757
vn 0.1926 0.7947 0.5757
vn 0.3031 0.2952 0.9061
vn 0.3031 -0.2952 0.9061
vn 0.1926 -0.7947 0.5757
vn -0.3031 -0.2952 -0.9061
vn -0.4942 0.7947 -0.3525
vn 0.4942 0.7947 0.3525
vn 0.7778 0.2952 0.5548
vn 0.7778 -0.2952 0.5548
vn 0.4942 -0.7947 0.3525
vn -0.7778 -0.2952 -0.5548
vn -0.6070 0.7947 0.0053
vn 0.6070 0.7947 -0.0053
vn 0.9554 0.2952 -0.0083
vn 0.9554 -0.2952 -0.0083
vn 0.6070 -0.7947 -0.0053
vn -0.9554 -0.2952 0.0083
vn 0.7680 0.2952 -0.5683
vn 0.4880 -0.7947 -0.3611
vn 0.2873 0.2952 -0.9112
vn 0.1826 -0.7947 -0.5790
vn -0.3031 0.2952 -0.9061
vn -0.1926 -0.7947 -0.5757
vn -0.7778 0.2952 -0.5548
vn -0.4942 -0.7947 -0.3525
vn -0.9554 0.2952 0.0083
vn -0.6070 -0.7947 0.0053
vn -0.9838 -0.0554 -0.1706
vn -0.9838 -0.1794 -0.0000
vn -0.9838 -0.0554 0.1706
vn -0.9838 0.1451 0.1054
vn 0.0000 0.8090 -0.5878
vn -0.9838 0.1451 -0.1054
vn -1.0000 0.0000 0.0000
vn -0.0000 0.8090 0.5878
vn -0.0000 -0.3090 0.9511
vn 1.0000 -0.0000 -0.0000
vn 0.5017 -0.2673 -0.8227
vn 0.9589 -0.0877 -0.2698
vn 0.5017 -0.8651 -0.0000
vn 0.9589 -0.2837 -0.0000
vn 0.5017 -0.2673 0.8227
vn 0.9589 -0.0876 0.2698
vn 0.5016 0.6999 0.5085
vn 0.9589 0.2295 0.1667
vn 0.5017 0.6999 -0.5085
vn 0.9589 0.2295 -0.1668
vn 0.0000 -0.3090 -0.9511
vn 0.0000 1.0000 -0.0000
vn -0.9838 -0.1451 -0.1054
vn -0.9838 -0.1451 0.1054
vn -0.9838 0.0554 0.1706
vn -0.9838 0.1794 -0.0000
vn -0.9838 0.0554 -0.1706
vn 0.0000 -0.8090 -0.5878
vn -0.0000 0.3090 0.9511
vn -0.0000 -0.8090 0.5878
vn 0.0000 0.3090 -0.9511
vn 0.5017 -0.6999 -0.5085
vn 0.9589 -0.2295 -0.1668
vn 0.5017 -0.6999 0.5085
vn 0.9589 -0.2295 0.1668
vn 0.5017 0.2673 0.8227
vn 0.9589 0.0876 0.2698
vn 0.5017 0.8651 -0.0000
vn 0.9589 0.2837 -0.0000
vn 0.5017 0.2673 -0.8227
vn 0.9589 0.0877 -0.2698
usemtl Blanco.012
s off
f 2/1/1 12/2/1 13/3/1 3/4/1
f 4/5/2 14/6/2 15/7/2 5/8/2
f 5/9/3 15/10/3 16/11/3 6/12/3
f 6/12/4 16/11/4 17/13/4 7/14/4
f 7/14/5 17/13/5 18/15/5 8/16/5
f 8/16/6 18/15/6 19/17/6 9/18/6
f 10/19/7 20/20/7 11/21/7 1/22/7
f 12/2/8 22/23/8 23/24/8 13/3/8
f 14/6/9 24/25/9 25/26/9 15/7/9
f 15/10/10 25/27/10 26/28/10 16/11/10
f 16/11/11 26/28/11 27/29/11 17/13/11
f 17/13/12 27/29/12 28/30/12 18/15/12
f 18/15/6 28/30/6 29/31/6 19/17/6
f 20/20/13 30/32/13 21/33/13 11/21/13
f 22/23/14 32/34/14 33/35/14 23/24/14
f 24/25/15 34/36/15 35/37/15 25/26/15
f 25/27/16 35/38/16 36/39/16 26/28/16
f 26/28/17 36/39/17 37/40/17 27/29/17
f 27/29/18 37/40/18 38/41/18 28/30/18
f 28/30/6 38/41/6 39/42/6 29/31/6
f 30/32/19 40/43/19 31/44/19 21/33/19
f 32/34/20 42/45/20 43/46/20 33/35/20
f 34/36/21 44/47/21 45/48/21 35/37/21
f 35/38/22 45/49/22 46/50/22 36/39/22
f 36/39/23 46/50/23 47/51/23 37/40/23
f 37/40/24 47/51/24 48/52/24 38/41/24
f 38/41/6 48/52/6 49/53/6 39/42/6
f 40/43/25 50/54/25 41/55/25 31/44/25
f 42/56/26 52/57/26 53/58/26 43/59/26
f 44/60/27 54/61/27 55/62/27 45/63/27
f 45/64/28 55/65/28 56/66/28 46/67/28
f 46/67/29 56/66/29 57/68/29 47/69/29
f 47/69/30 57/68/30 58/70/30 48/71/30
f 48/71/6 58/70/6 59/72/6 49/73/6
f 50/74/31 60/75/31 51/76/31 41/77/31
f 52/57/2 62/78/2 63/79/2 53/58/2
f 54/61/1 64/80/1 65/81/1 55/62/1
f 55/65/32 65/82/32 66/83/32 56/66/32
f 56/66/7 66/83/7 67/84/7 57/68/7
f 57/68/33 67/84/33 68/85/33 58/70/33
f 58/70/6 68/85/6 69/86/6 59/72/6
f 60/75/4 70/87/4 61/88/4 51/76/4
f 62/78/9 72/89/9 73/90/9 63/79/9
f 64/80/8 74/91/8 75/92/8 65/81/8
f 65/82/34 75/93/34 76/94/34 66/83/34
f 66/83/13 76/94/13 77/95/13 67/84/13
f 67/84/35 77/95/35 78/96/35 68/85/35
f 68/85/6 78/96/6 79/97/6 69/86/6
f 70/87/11 80/98/11 71/99/11 61/88/11
f 72/89/15 82/100/15 83/101/15 73/90/15
f 74/91/14 84/102/14 85/103/14 75/92/14
f 75/93/36 85/104/36 86/105/36 76/94/36
f 76/94/19 86/105/19 87/106/19 77/95/19
f 77/95/37 87/106/37 88/107/37 78/96/37
f 78/96/6 88/107/6 89/108/6 79/97/6
f 80/98/17 90/109/17 81/110/17 71/99/17
f 82/100/21 92/111/21 93/112/21 83/101/21
f 84/102/20 94/113/20 95/114/20 85/103/20
f 85/104/38 95/115/38 96/116/38 86/105/38
f 86/105/25 96/116/25 97/117/25 87/106/25
f 87/106/39 97/117/39 98/118/39 88/107/39
f 88/107/6 98/118/6 99/119/6 89/108/6
f 90/109/23 100/120/23 91/121/23 81/110/23
f 91/121/28 1/22/28 2/1/28 92/111/28
f 92/111/27 2/1/27 3/4/27 93/112/27
f 94/113/26 4/5/26 5/8/26 95/114/26
f 95/115/40 5/9/40 6/12/40 96/116/40
f 96/116/31 6/12/31 7/14/31 97/117/31
f 97/117/41 7/14/41 8/16/41 98/118/41
f 98/118/6 8/16/6 9/18/6 99/119/6
f 99/119/30 9/18/30 10/19/30 100/120/30
f 100/120/29 10/19/29 1/22/29 91/121/29
f 121/122/42 102/123/42 104/124/42 122/125/42
f 123/126/43 106/127/43 108/128/43 124/129/43
f 125/130/44 110/131/44 112/132/44 126/133/44
f 127/134/45 114/135/45 116/136/45 128/137/45
f 120/138/46 118/139/46 156/140/46 159/141/46
f 129/142/47 118/139/47 120/138/47 130/143/47
f 101/144/48 103/145/48 105/146/48 107/147/48 109/148/48 111/149/48 113/150/48 115/151/48 117/152/48 119/153/48
f 116/136/49 114/135/49 150/154/49 153/155/49
f 112/132/50 110/131/50 144/156/50 147/157/50
f 131/158/51 135/159/51 158/160/51 155/161/51 152/162/51 149/163/51 146/164/51 143/165/51 140/166/51 137/167/51
f 108/128/6 106/127/6 138/168/6 141/169/6
f 132/170/52 134/171/52 136/172/52 133/173/52
f 133/174/53 136/175/53 135/159/53 131/158/53
f 141/169/54 138/168/54 139/176/54 142/177/54
f 142/178/55 139/179/55 137/167/55 140/166/55
f 147/157/56 144/156/56 145/180/56 148/181/56
f 148/182/57 145/183/57 143/165/57 146/164/57
f 153/155/58 150/154/58 151/184/58 154/185/58
f 154/186/59 151/187/59 149/163/59 152/162/59
f 159/141/60 156/140/60 157/188/60 160/189/60
f 160/190/61 157/191/61 155/161/61 158/160/61
f 104/124/62 102/123/62 134/171/62 132/170/62
usemtl Rojo.020
f 1/22/32 11/21/32 12/2/32 2/1/32
f 3/4/63 13/3/63 14/6/63 4/5/63
f 9/18/33 19/17/33 20/20/33 10/19/33
f 11/21/34 21/33/34 22/23/34 12/2/34
f 13/3/63 23/24/63 24/25/63 14/6/63
f 19/17/35 29/31/35 30/32/35 20/20/35
f 21/33/36 31/44/36 32/34/36 22/23/36
f 23/24/63 33/35/63 34/36/63 24/25/63
f 29/31/37 39/42/37 40/43/37 30/32/37
f 31/44/38 41/55/38 42/45/38 32/34/38
f 33/35/63 43/46/63 44/47/63 34/36/63
f 39/42/39 49/53/39 50/54/39 40/43/39
f 41/77/40 51/76/40 52/57/40 42/56/40
f 43/59/63 53/58/63 54/61/63 44/60/63
f 49/73/41 59/72/41 60/75/41 50/74/41
f 51/76/3 61/88/3 62/78/3 52/57/3
f 53/58/63 63/79/63 64/80/63 54/61/63
f 59/72/5 69/86/5 70/87/5 60/75/5
f 61/88/10 71/99/10 72/89/10 62/78/10
f 63/79/63 73/90/63 74/91/63 64/80/63
f 69/86/12 79/97/12 80/98/12 70/87/12
f 71/99/16 81/110/16 82/100/16 72/89/16
f 73/90/63 83/101/63 84/102/63 74/91/63
f 79/97/18 89/108/18 90/109/18 80/98/18
f 81/110/22 91/121/22 92/111/22 82/100/22
f 83/101/63 93/112/63 94/113/63 84/102/63
f 89/108/24 99/119/24 100/120/24 90/109/24
f 93/112/63 3/4/63 4/5/63 94/113/63
f 122/125/64 104/124/64 106/127/64 123/126/64
f 124/129/65 108/128/65 110/131/65 125/130/65
f 126/133/66 112/132/66 114/135/66 127/134/66
f 128/137/67 116/136/67 118/139/67 129/142/67
f 130/143/68 120/138/68 102/192/68 121/193/68
f 106/127/69 104/124/69 132/170/69 138/168/69
f 118/139/63 116/136/63 153/155/63 156/140/63
f 114/135/70 112/132/70 147/157/70 150/154/70
f 110/131/71 108/128/71 141/169/71 144/156/71
f 102/192/72 120/138/72 159/141/72 134/194/72
f 138/168/73 132/170/73 133/195/73 139/196/73
f 139/197/74 133/198/74 131/158/74 137/167/74
f 144/156/75 141/169/75 142/199/75 145/200/75
f 145/201/76 142/202/76 140/166/76 143/165/76
f 150/154/77 147/157/77 148/203/77 151/204/77
f 151/205/78 148/206/78 146/164/78 149/163/78
f 156/140/79 153/155/79 154/207/79 157/208/79
f 157/209/80 154/210/80 152/162/80 155/161/80
f 134/194/81 159/141/81 160/211/81 136/212/81
f 136/213/82 160/214/82 158/160/82 135/159/82
usemtl Gris.004
f 119/215/72 130/143/72 121/193/72 101/216/72
f 117/217/46 129/142/46 130/143/46 119/215/46
f 115/218/63 128/137/63 129/142/63 117/217/63
f 113/219/49 127/134/49 128/137/49 115/218/49
f 111/220/70 126/133/70 127/134/70 113/219/70
f 109/221/50 125/130/50 126/133/50 111/220/50
f 107/222/71 124/129/71 125/130/71 109/221/71
f 105/223/6 123/126/6 124/129/6 107/222/6
f 103/224/69 122/125/69 123/126/69 105/223/69
f 101/225/62 121/122/62 122/125/62 103/224/62
